HIERARCHY
ROOT hip
{
  OFFSET -35.5296 82.1593 -31.3387
  CHANNELS 6 Xposition Yposition Zposition Zrotation Xrotation Yrotation
  JOINT abdomen
  {
    OFFSET 0 20.6881 -0.73152
    CHANNELS 3 Zrotation Xrotation Yrotation
    JOINT chest
    {
      OFFSET 0 11.7043 -0.48768
      CHANNELS 3 Zrotation Xrotation Yrotation
      JOINT neck
      {
        OFFSET 0 22.1894 -2.19456
        CHANNELS 3 Zrotation Xrotation Yrotation
        JOINT head
        {
          OFFSET -0.24384 7.07133 1.2192
          CHANNELS 3 Zrotation Xrotation Yrotation
          JOINT leftEye
          {
            OFFSET 4.14528 8.04674 8.04672
            CHANNELS 3 Zrotation Xrotation Yrotation
            End Site
            {
              OFFSET 1 0 0
            }
          }
          JOINT rightEye
          {
            OFFSET -3.6576 8.04674 8.04672
            CHANNELS 3 Zrotation Xrotation Yrotation
            End Site
            {
              OFFSET 1 0 0
            }
          }
        }
      }
      JOINT rCollar
      {
        OFFSET -2.68224 19.2634 -4.8768
        CHANNELS 3 Zrotation Xrotation Yrotation
        JOINT rShldr
        {
          OFFSET -8.77824 -1.95073 1.46304
          CHANNELS 3 Zrotation Xrotation Yrotation
          JOINT rForeArm
          {
            OFFSET -28.1742 -1.7115 0.48768
            CHANNELS 3 Zrotation Xrotation Yrotation
            JOINT rHand
            {
              OFFSET -22.5879 0.773209 7.07136
              CHANNELS 3 Zrotation Xrotation Yrotation
              JOINT rThumb1
              {
                OFFSET -1.2192 -0.487915 3.41376
                CHANNELS 3 Zrotation Xrotation Yrotation
                JOINT rThumb2
                {
                  OFFSET -3.37035 -0.52449 3.41376
                  CHANNELS 3 Zrotation Xrotation Yrotation
                  End Site
                  {
                    OFFSET -1.78271 -1.18214 1.43049
                  }
                }
              }
              JOINT rIndex1
              {
                OFFSET -7.75947 0.938293 5.60832
                CHANNELS 3 Zrotation Xrotation Yrotation
                JOINT rIndex2
                {
                  OFFSET -2.54057 -0.884171 1.56538
                  CHANNELS 3 Zrotation Xrotation Yrotation
                  End Site
                  {
                    OFFSET -1.62519 -0.234802 1.16502
                  }
                }
              }
              JOINT rMid1
              {
                OFFSET -8.24714 1.18213 3.41376
                CHANNELS 3 Zrotation Xrotation Yrotation
                JOINT rMid2
                {
                  OFFSET -3.10165 -0.590103 1.0647
                  CHANNELS 3 Zrotation Xrotation Yrotation
                  End Site
                  {
                    OFFSET -2.48547 -0.328903 0.83742
                  }
                }
              }
              JOINT rRing1
              {
                OFFSET -8.82822 0.546677 1.51678
                CHANNELS 3 Zrotation Xrotation Yrotation
                JOINT rRing2
                {
                  OFFSET -2.60934 -0.819778 -0.0198488
                  CHANNELS 3 Zrotation Xrotation Yrotation
                  End Site
                  {
                    OFFSET -2.33842 -0.294052 0.168128
                  }
                }
              }
              JOINT rPinky1
              {
                OFFSET -8.27202 -0.0477905 -0.4584
                CHANNELS 3 Zrotation Xrotation Yrotation
                JOINT rPinky2
                {
                  OFFSET -1.82734 -0.647385 -0.700984
                  CHANNELS 3 Zrotation Xrotation Yrotation
                  End Site
                  {
                    OFFSET -1.69225 -0.51767 -0.607171
                  }
                }
              }
            }
          }
        }
      }
      JOINT lCollar
      {
        OFFSET 2.68224 19.2634 -4.8768
        CHANNELS 3 Zrotation Xrotation Yrotation
        JOINT lShldr
        {
          OFFSET 8.77824 -1.95073 1.46304
          CHANNELS 3 Zrotation Xrotation Yrotation
          JOINT lForeArm
          {
            OFFSET 28.1742 -1.7115 0.48768
            CHANNELS 3 Zrotation Xrotation Yrotation
            JOINT lHand
            {
              OFFSET 22.5879 0.773209 7.07136
              CHANNELS 3 Zrotation Xrotation Yrotation
              JOINT lThumb1
              {
                OFFSET 1.2192 -0.487915 3.41376
                CHANNELS 3 Zrotation Xrotation Yrotation
                JOINT lThumb2
                {
                  OFFSET 3.37035 -0.52449 3.41376
                  CHANNELS 3 Zrotation Xrotation Yrotation
                  End Site
                  {
                    OFFSET 1.78271 -1.18214 1.43049
                  }
                }
              }
              JOINT lIndex1
              {
                OFFSET 7.75947 0.938293 5.60832
                CHANNELS 3 Zrotation Xrotation Yrotation
                JOINT lIndex2
                {
                  OFFSET 2.54057 -0.884171 1.56538
                  CHANNELS 3 Zrotation Xrotation Yrotation
                  End Site
                  {
                    OFFSET 1.62519 -0.234802 1.16502
                  }
                }
              }
              JOINT lMid1
              {
                OFFSET 8.24714 1.18213 3.41376
                CHANNELS 3 Zrotation Xrotation Yrotation
                JOINT lMid2
                {
                  OFFSET 3.10165 -0.590103 1.0647
                  CHANNELS 3 Zrotation Xrotation Yrotation
                  End Site
                  {
                    OFFSET 2.48547 -0.328903 0.83742
                  }
                }
              }
              JOINT lRing1
              {
                OFFSET 8.82822 0.546677 1.51678
                CHANNELS 3 Zrotation Xrotation Yrotation
                JOINT lRing2
                {
                  OFFSET 2.60934 -0.819778 -0.0198488
                  CHANNELS 3 Zrotation Xrotation Yrotation
                  End Site
                  {
                    OFFSET 2.33842 -0.294052 0.168128
                  }
                }
              }
              JOINT lPinky1
              {
                OFFSET 8.27202 -0.0477905 -0.4584
                CHANNELS 3 Zrotation Xrotation Yrotation
                JOINT lPinky2
                {
                  OFFSET 1.82734 -0.647385 -0.700984
                  CHANNELS 3 Zrotation Xrotation Yrotation
                  End Site
                  {
                    OFFSET 1.69225 -0.51767 -0.607171
                  }
                }
              }
            }
          }
        }
      }
    }
  }
  JOINT rButtock
  {
    OFFSET -8.77824 4.35084 1.2192
    CHANNELS 3 Zrotation Xrotation Yrotation
    JOINT rThigh
    {
      OFFSET 0 -1.70687 -2.19456
      CHANNELS 3 Zrotation Xrotation Yrotation
      JOINT rShin
      {
        OFFSET 0 -36.8199 0.73152
        CHANNELS 3 Zrotation Xrotation Yrotation
        JOINT rFoot
        {
          OFFSET 0.73152 -45.1104 -5.12064
          CHANNELS 3 Zrotation Xrotation Yrotation
          End Site
          {
            OFFSET -1.1221 -3.69964 12.103
          }
        }
      }
    }
  }
  JOINT lButtock
  {
    OFFSET 8.77824 4.35084 1.2192
    CHANNELS 3 Zrotation Xrotation Yrotation
    JOINT lThigh
    {
      OFFSET 0 -1.70687 -2.19456
      CHANNELS 3 Zrotation Xrotation Yrotation
      JOINT lShin
      {
        OFFSET 0 -36.8199 0.73152
        CHANNELS 3 Zrotation Xrotation Yrotation
        JOINT lFoot
        {
          OFFSET -0.73152 -45.1104 -5.12064
          CHANNELS 3 Zrotation Xrotation Yrotation
          End Site
          {
            OFFSET 1.1221 -3.69964 12.103
          }
        }
      }
    }
  }
}
MOTION
Frames:	7
Frame Time:	0.00833333
66.0117 105.17 24.201 -174.94 -35.8135 135.986 -3.18554 -14.8276 -13.7095 9.37671 -9.09704 -2.47679 -7.99463 1.36673 -3.34072 10.3309 -40.2711 -1.03615 -0 0 0 -0 0 0 -6.43213e-013 -2.1369e-012 -4.46123e-013 -23.2405 -58.8075 6.10993 -22.9574 -17.2633 46.4748 -0.435494 18.3499 2.67289 1.29373e-009 -1.59334e-009 -1.75757e-009 2.2175e-009 -2.73591e-009 -3.05042e-009 1.29374e-009 -1.59334e-009 -1.75757e-009 7.73091 5.47488 0.417314 1.29373e-009 -1.59334e-009 -1.75756e-009 2.90554 0.965183 0.102902 1.29374e-009 -1.59334e-009 -1.75756e-009 10.2786 0.731801 0.0259123 1.29373e-009 -1.59334e-009 -1.75756e-009 2.22167 -0.733487 -0.20892 -6.43331e-013 -2.13687e-012 -4.46423e-013 42.7833 -64.5314 -10.9924 18.9379 -11.7366 -36.1458 105.187 -81.2791 113.427 -1.84471e-009 1.7666e-009 2.58034e-010 -3.16021e-009 2.87744e-009 3.01603e-010 -1.84472e-009 1.7666e-009 2.5804e-010 -7.73091 5.47488 -0.417314 -1.84471e-009 1.76659e-009 2.58032e-010 -2.90554 0.965183 -0.102902 -1.84472e-009 1.76659e-009 2.58035e-010 -10.2786 0.731801 -0.0259123 -1.8447e-009 1.76659e-009 2.58024e-010 -2.22167 -0.733487 0.20892 -2.03217e-016 0 -3.88251e-019 -22.1855 3.39772 -8.86482 -41.8233 88.3372 41.6668 6.21487 28.579 -19.0109 2.03217e-016 0 3.88251e-019 31.125 6.96135 22.7599 5.77746 81.5352 -6.76402 8.05846 34.5046 -17.0956 
66.3988 106.323 20.9652 -174.662 -32.0665 135.758 -3.82403 -14.5423 -13.7321 9.91227 -9.47229 -2.40046 -8.14575 0.942245 -2.88956 10.4889 -40.4895 0.267227 -0 0 0 -0 0 0 -7.39146e-013 -2.21808e-012 -1.05036e-013 -20.552 -56.9182 10.6141 -23.0758 -17.4601 46.8211 -0.458232 18.8119 2.74516 1.55192e-009 -6.04945e-010 -9.66656e-010 2.67223e-009 -1.02952e-009 -1.68763e-009 1.55192e-009 -6.04944e-010 -9.66656e-010 7.73091 5.47488 0.417314 1.55192e-009 -6.04946e-010 -9.66652e-010 2.90554 0.965183 0.102902 1.55193e-009 -6.04946e-010 -9.6665e-010 10.2786 0.731801 0.0259123 1.55192e-009 -6.04948e-010 -9.66642e-010 2.22167 -0.733487 -0.20892 -7.39286e-013 -2.21805e-012 -1.05322e-013 42.4374 -64.1319 -13.8145 18.5634 -11.3106 -35.282 117.38 -80.1579 125.78 -2.05891e-009 1.41514e-009 9.52715e-011 -3.48988e-009 2.27658e-009 -4.10735e-011 -2.05892e-009 1.41514e-009 9.52793e-011 -7.73091 5.47488 -0.417314 -2.05891e-009 1.41514e-009 9.52713e-011 -2.90554 0.965183 -0.102902 -2.05891e-009 1.41514e-009 9.5274e-011 -10.2786 0.731801 -0.0259123 -2.0589e-009 1.41514e-009 9.52664e-011 -2.22167 -0.733487 0.20892 -2.03217e-016 0 -3.88251e-019 -22.3162 3.70004 -8.2757 -24.6876 87.4176 24.6301 5.57335 27.272 -18.2257 2.03217e-016 0 3.88251e-019 29.376 6.90999 22.5209 4.08314 78.6786 -5.03225 7.63489 33.1376 -16.8264 
66.7056 107.262 17.5156 -174.517 -28.4833 135.488 -4.35022 -14.3126 -13.9005 10.4248 -9.78988 -2.37278 -8.31804 0.509548 -2.44301 10.6426 -40.481 1.5544 -0 0 0 -0 0 0 -7.71594e-013 -2.12799e-012 3.09305e-013 -18.5487 -54.8489 14.4353 -23.1873 -17.6496 47.1414 -0.46949 19.0781 2.78638 1.74677e-009 6.80423e-010 8.10589e-011 3.02024e-009 1.18861e-009 1.19891e-010 1.74677e-009 6.80423e-010 8.10592e-011 7.73091 5.47488 0.417314 1.74677e-009 6.80423e-010 8.1058e-011 2.90554 0.965183 0.102902 1.74677e-009 6.80423e-010 8.10647e-011 10.2786 0.731801 0.0259123 1.74676e-009 6.80423e-010 8.10746e-011 2.22167 -0.733487 -0.20892 -7.7175e-013 -2.12796e-012 3.09039e-013 41.3528 -63.7828 -16.9061 18.2437 -10.9511 -34.5693 124.117 -79.1777 132.628 -2.0673e-009 9.02309e-010 -1.41061e-010 -3.46264e-009 1.40293e-009 -4.96996e-010 -2.06731e-009 9.02309e-010 -1.41051e-010 -7.73091 5.47488 -0.417314 -2.06731e-009 9.02305e-010 -1.41059e-010 -2.90554 0.965183 -0.102902 -2.06731e-009 9.02307e-010 -1.41057e-010 -10.2786 0.731801 -0.0259123 -2.0673e-009 9.02308e-010 -1.41061e-010 -2.22167 -0.733487 0.20892 -2.03217e-016 0 -3.88251e-019 -22.4192 3.73794 -7.57527 -16.926 86.4028 16.9642 4.98259 25.9128 -17.5328 2.03217e-016 0 3.88251e-019 27.6109 6.86939 22.3424 3.02805 75.6634 -3.94497 7.25916 31.7719 -16.6576 
67.1047 108.071 14.1413 -174.363 -25.1485 135.17 -4.6406 -14.1395 -14.0204 10.6707 -10.0148 -2.36826 -8.46064 0.275917 -2.08832 10.7923 -40.448 2.54886 -0 0 0 -0 0 0 -7.29858e-013 -1.97474e-012 6.45851e-013 -16.9635 -52.8747 17.576 -23.3172 -17.8732 47.5168 -0.479596 19.2966 2.82052 1.77984e-009 1.77381e-009 9.37573e-010 3.08772e-009 3.07497e-009 1.59935e-009 1.77984e-009 1.77381e-009 9.37573e-010 7.73091 5.47488 0.417314 1.77984e-009 1.77381e-009 9.3757e-010 2.90554 0.965183 0.102902 1.77985e-009 1.77381e-009 9.37578e-010 10.2786 0.731801 0.0259123 1.77984e-009 1.77381e-009 9.37589e-010 2.22167 -0.733487 -0.20892 -7.30015e-013 -1.97472e-012 6.45603e-013 38.0988 -63.8593 -20.9126 18.153 -10.852 -34.3641 125.848 -78.8732 134.392 -1.8074e-009 6.63502e-010 -2.95372e-010 -2.99244e-009 9.75457e-010 -7.76105e-010 -1.8074e-009 6.63502e-010 -2.95359e-010 -7.73091 5.47488 -0.417314 -1.80741e-009 6.63499e-010 -2.95369e-010 -2.90554 0.965183 -0.102902 -1.80741e-009 6.63502e-010 -2.95367e-010 -10.2786 0.731801 -0.0259123 -1.8074e-009 6.63503e-010 -2.95369e-010 -2.22167 -0.733487 0.20892 -2.03217e-016 0 -3.88251e-019 -22.3907 3.52921 -6.8879 -12.7657 85.3939 12.8785 4.52653 24.5415 -17.2211 2.03217e-016 0 3.88251e-019 25.9946 6.79618 22.3241 2.35539 72.7009 -3.23963 6.8885 30.3924 -16.5091 
67.5668 108.745 10.7306 -174.186 -22.072 134.861 -4.54256 -14.0923 -14.1187 10.56 -10.1029 -2.40644 -8.59208 0.337085 -1.83012 10.9907 -40.382 3.22657 -0 0 0 -0 0 0 -5.50153e-013 -1.67691e-012 9.13267e-013 -15.6273 -50.9777 20.1468 -23.5078 -18.2068 48.0767 -0.486214 19.4147 2.83933 1.4884e-009 2.80197e-009 1.65386e-009 2.59527e-009 4.8483e-009 2.84148e-009 1.4884e-009 2.80197e-009 1.65386e-009 7.73091 5.47488 0.417314 1.4884e-009 2.80197e-009 1.65386e-009 2.90554 0.965183 0.102902 1.4884e-009 2.80197e-009 1.65386e-009 10.2786 0.731801 0.0259123 1.48839e-009 2.80197e-009 1.65387e-009 2.22167 -0.733487 -0.20892 -5.50287e-013 -1.6769e-012 9.13037e-013 30.6273 -64.6971 -27.2103 18.3606 -11.0822 -34.8295 120.546 -79.7675 128.995 -1.0559e-009 8.99915e-010 -3.66448e-010 -1.70052e-009 1.31155e-009 -8.56038e-010 -1.0559e-009 8.99914e-010 -3.66432e-010 -7.73091 5.47488 -0.417314 -1.0559e-009 8.99911e-010 -3.66444e-010 -2.90554 0.965183 -0.102902 -1.0559e-009 8.99913e-010 -3.66444e-010 -10.2786 0.731801 -0.0259123 -1.05589e-009 8.99915e-010 -3.66445e-010 -2.22167 -0.733487 0.20892 -2.03217e-016 0 -3.88251e-019 -22.2109 2.98656 -6.14336 -10.261 84.4241 10.4215 4.1966 23.0792 -17.46 2.03217e-016 0 3.88251e-019 24.5626 6.73589 22.6038 1.8841 69.7443 -2.73394 6.49644 28.9241 -16.3674 
68.0763 109.282 7.31421 -174.067 -19.1916 134.577 -4.16225 -14.1471 -14.2726 10.2306 -10.0845 -2.49215 -8.73362 0.569252 -1.62797 11.209 -40.2035 3.71131 -0 0 0 -0 0 0 -2.58498e-013 -1.2136e-012 1.1758e-012 -14.5403 -49.1036 22.27 -23.7278 -18.5993 48.7452 -0.48479 19.3842 2.83457 9.7043e-010 3.93997e-009 2.41204e-009 1.71326e-009 6.8106e-009 4.1595e-009 9.70433e-010 3.93997e-009 2.41203e-009 7.73091 5.47488 0.417314 9.70429e-010 3.93997e-009 2.41204e-009 2.90554 0.965183 0.102902 9.70433e-010 3.93997e-009 2.41204e-009 10.2786 0.731801 0.0259123 9.70427e-010 3.93997e-009 2.41205e-009 2.22167 -0.733487 -0.20892 -2.58589e-013 -1.21361e-012 1.17559e-012 19.5702 -65.6789 -35.6486 18.7593 -11.5266 -35.755 106.675 -81.2181 114.933 8.50079e-011 1.35097e-009 -4.23845e-010 2.48625e-010 1.98586e-009 -8.73165e-010 8.50007e-011 1.35096e-009 -4.23827e-010 -7.73091 5.47488 -0.417314 8.50041e-011 1.35096e-009 -4.23842e-010 -2.90554 0.965183 -0.102902 8.50032e-011 1.35096e-009 -4.23843e-010 -10.2786 0.731801 -0.0259123 8.50105e-011 1.35097e-009 -4.23845e-010 -2.22167 -0.733487 0.20892 -2.03217e-016 0 -3.88251e-019 -21.9101 2.12852 -5.31201 -8.58829 83.4837 8.77935 3.90993 21.5462 -18.0469 2.03217e-016 0 3.88251e-019 23.2305 6.6924 23.0911 1.52675 66.7174 -2.34295 6.10503 27.4001 -16.2708 
68.5563 109.755 4.08581 -173.994 -16.4847 134.268 -3.76569 -14.1656 -14.3642 9.78068 -10.036 -2.5778 -8.84131 0.850498 -1.50146 11.3484 -40.0147 3.96342 -0 0 0 -0 0 0 2.11089e-014 -7.8368e-013 1.36576e-012 -13.5986 -47.4552 24.0237 -23.8999 -18.9117 49.2909 -0.48338 19.3598 2.83067 5.18619e-010 4.7713e-009 2.96083e-009 9.42569e-010 8.24316e-009 5.11435e-009 5.18623e-010 4.7713e-009 2.96083e-009 7.73091 5.47488 0.417314 5.18619e-010 4.7713e-009 2.96083e-009 2.90554 0.965183 0.102902 5.18622e-010 4.7713e-009 2.96083e-009 10.2786 0.731801 0.0259123 5.18618e-010 4.7713e-009 2.96084e-009 2.22167 -0.733487 -0.20892 2.10574e-014 -7.83694e-013 1.36557e-012 8.29049 -66.0067 -43.8764 19.2607 -12.1048 -36.9354 87.6382 -81.978 95.693 1.18952e-009 1.75942e-009 -4.18124e-010 2.12616e-009 2.6033e-009 -7.75521e-010 1.18951e-009 1.75941e-009 -4.18105e-010 -7.73091 5.47488 -0.417314 1.18951e-009 1.75941e-009 -4.18122e-010 -2.90554 0.965183 -0.102902 1.18951e-009 1.75941e-009 -4.18124e-010 -10.2786 0.731801 -0.0259123 1.18952e-009 1.75941e-009 -4.18128e-010 -2.22167 -0.733487 0.20892 -2.03217e-016 0 -3.88251e-019 -21.4731 1.13416 -4.5778 -7.38015 82.5627 7.59131 3.64126 20.1331 -18.7084 2.03217e-016 0 3.88251e-019 21.985 6.5616 23.5435 1.26268 63.7874 -2.04618 5.74996 25.9656 -16.2174 
